<svg width="54" height="54" viewBox="0 0 54 54" fill="none" xmlns="http://www.w3.org/2000/svg">
<rect width="9.38887" height="44.154" rx="4.69444" transform="matrix(-0.495769 -0.868455 0.863562 -0.504243 6.68622 29.6)" fill="#FFAA50"/>
<path d="M30.8162 48.2229C27.0322 51.1955 21.7081 55.9148 19.3256 51.7413C16.932 47.5482 22.4183 43.1102 26.1968 40.0936C27.8173 38.8 29.8834 37.3462 32.4823 35.8287C35.0811 34.3112 37.359 33.2284 39.277 32.456C43.7493 30.6547 50.2927 28.0685 52.6864 32.2616C55.0689 36.435 48.3658 38.7386 43.9283 40.5665C42.0473 41.3414 39.7854 42.4361 37.137 43.9825C34.4886 45.529 32.4202 46.9627 30.8162 48.2229Z" fill="#6D86F5"/>
<rect width="9.33598" height="25.7369" rx="4.66799" transform="matrix(0.863562 -0.504243 0.495769 0.868455 -0.959167 16.2069)" fill="#FF546D"/>
<rect width="9.33598" height="22.8397" rx="4.66799" transform="matrix(0.863562 -0.504243 0.495769 0.868455 35.2677 20.5788)" fill="#00D4E6"/>
</svg>
